{
    "asset" : {
        "generator" : "Khronos glTF Blender I/O v1.8.19",
        "version" : "2.0"
    },
    "scene" : 1,
    "scenes" : [
        {
            "name" : "collab"
        },
        {
            "name" : "newChurch",
            "nodes" : [
                0,
                1
            ]
        },
        {
            "name" : "Scene.001"
        },
        {
            "name" : "Scene.002"
        },
        {
            "name" : "Scene.003"
        }
    ],
    "nodes" : [
        {
            "mesh" : 0,
            "name" : "Ground_Col",
            "translation" : [
                0.3488922119140625,
                -1,
                -72.810302734375
            ]
        },
        {
            "mesh" : 1,
            "name" : "Ground",
            "translation" : [
                0.07769209891557693,
                -3.578348159790039,
                -8.502190589904785
            ]
        }
    ],
    "materials" : [
        {
            "alphaMode" : "BLEND",
            "doubleSided" : true,
            "name" : "alphaMtl",
            "pbrMetallicRoughness" : {
                "baseColorFactor" : [
                    0.800000011920929,
                    0.800000011920929,
                    0.800000011920929,
                    0
                ],
                "metallicFactor" : 0,
                "roughnessFactor" : 0.5
            }
        }
    ],
    "meshes" : [
        {
            "name" : "Cube.002",
            "primitives" : [
                {
                    "attributes" : {
                        "POSITION" : 0,
                        "NORMAL" : 1,
                        "TEXCOORD_0" : 2
                    },
                    "indices" : 3,
                    "material" : 0
                }
            ]
        },
        {
            "name" : "Box044.003",
            "primitives" : [
                {
                    "attributes" : {
                        "POSITION" : 4,
                        "NORMAL" : 5,
                        "TEXCOORD_0" : 6
                    },
                    "indices" : 7
                }
            ]
        }
    ],
    "accessors" : [
        {
            "bufferView" : 0,
            "componentType" : 5126,
            "count" : 318,
            "max" : [
                21.933773040771484,
                26.489952087402344,
                75.37254333496094
            ],
            "min" : [
                -19.4971866607666,
                -5.559544563293457,
                -59.43412780761719
            ],
            "type" : "VEC3"
        },
        {
            "bufferView" : 1,
            "componentType" : 5126,
            "count" : 318,
            "type" : "VEC3"
        },
        {
            "bufferView" : 2,
            "componentType" : 5126,
            "count" : 318,
            "type" : "VEC2"
        },
        {
            "bufferView" : 3,
            "componentType" : 5123,
            "count" : 660,
            "type" : "SCALAR"
        },
        {
            "bufferView" : 4,
            "componentType" : 5126,
            "count" : 24,
            "max" : [
                37.414649963378906,
                14.698906898498535,
                -6.333491325378418
            ],
            "min" : [
                -35.21336364746094,
                14.374185562133789,
                -141.46701049804688
            ],
            "type" : "VEC3"
        },
        {
            "bufferView" : 5,
            "componentType" : 5126,
            "count" : 24,
            "type" : "VEC3"
        },
        {
            "bufferView" : 6,
            "componentType" : 5126,
            "count" : 24,
            "type" : "VEC2"
        },
        {
            "bufferView" : 7,
            "componentType" : 5123,
            "count" : 36,
            "type" : "SCALAR"
        }
    ],
    "bufferViews" : [
        {
            "buffer" : 0,
            "byteLength" : 3816,
            "byteOffset" : 0
        },
        {
            "buffer" : 0,
            "byteLength" : 3816,
            "byteOffset" : 3816
        },
        {
            "buffer" : 0,
            "byteLength" : 2544,
            "byteOffset" : 7632
        },
        {
            "buffer" : 0,
            "byteLength" : 1320,
            "byteOffset" : 10176
        },
        {
            "buffer" : 0,
            "byteLength" : 288,
            "byteOffset" : 11496
        },
        {
            "buffer" : 0,
            "byteLength" : 288,
            "byteOffset" : 11784
        },
        {
            "buffer" : 0,
            "byteLength" : 192,
            "byteOffset" : 12072
        },
        {
            "buffer" : 0,
            "byteLength" : 72,
            "byteOffset" : 12264
        }
    ],
    "buffers" : [
        {
            "byteLength" : 12336,
            "uri" : "data:application/octet-stream;base64,"
        }
    ]
}
