{
    "asset" : {
        "generator" : "Khronos glTF Blender I/O v1.8.19",
        "version" : "2.0"
    },
    "scene" : 1,
    "scenes" : [
        {
            "name" : "collab"
        },
        {
            "name" : "newChurch",
            "nodes" : [
                0
            ]
        },
        {
            "name" : "Scene.001"
        },
        {
            "name" : "Scene.002"
        },
        {
            "name" : "Scene.003"
        }
    ],
    "nodes" : [
        {
            "mesh" : 0,
            "name" : "Obj_Angel",
            "translation" : [
                0.14220403134822845,
                11.087956428527832,
                -129.64720153808594
            ]
        }
    ],
    "materials" : [
        {
            "doubleSided" : true,
            "name" : "wire_115115115",
            "pbrMetallicRoughness" : {
                "baseColorFactor" : [
                    0.800000011920929,
                    0.800000011920929,
                    0.800000011920929,
                    1
                ],
                "metallicFactor" : 0,
                "roughnessFactor" : 0.5
            }
        }
    ],
    "meshes" : [
        {
            "name" : "Pillar_482.001",
            "primitives" : [
                {
                    "attributes" : {
                        "POSITION" : 0,
                        "NORMAL" : 1,
                        "TEXCOORD_0" : 2
                    },
                    "indices" : 3,
                    "material" : 0
                }
            ]
        }
    ],
    "accessors" : [
        {
            "bufferView" : 0,
            "componentType" : 5126,
            "count" : 18988,
            "max" : [
                3.0952179431915283,
                5.856074333190918,
                1.696990966796875
            ],
            "min" : [
                -3.2145979404449463,
                0,
                -1.6504364013671875
            ],
            "type" : "VEC3"
        },
        {
            "bufferView" : 1,
            "componentType" : 5126,
            "count" : 18988,
            "type" : "VEC3"
        },
        {
            "bufferView" : 2,
            "componentType" : 5126,
            "count" : 18988,
            "type" : "VEC2"
        },
        {
            "bufferView" : 3,
            "componentType" : 5123,
            "count" : 103854,
            "type" : "SCALAR"
        }
    ],
    "bufferViews" : [
        {
            "buffer" : 0,
            "byteLength" : 227856,
            "byteOffset" : 0
        },
        {
            "buffer" : 0,
            "byteLength" : 227856,
            "byteOffset" : 227856
        },
        {
            "buffer" : 0,
            "byteLength" : 151904,
            "byteOffset" : 455712
        },
        {
            "buffer" : 0,
            "byteLength" : 207708,
            "byteOffset" : 607616
        }
    ],
    "buffers" : [
        {
            "byteLength" : 815324,
            "uri" : "data:application/octet-stream;base64,"
        }
    ]
}
