{
    "asset" : {
        "generator" : "Khronos glTF Blender I/O v1.8.19",
        "version" : "2.0"
    },
    "scene" : 1,
    "scenes" : [
        {
            "name" : "collab"
        },
        {
            "name" : "newChurch",
            "nodes" : [
                0
            ]
        },
        {
            "name" : "Scene.001"
        },
        {
            "name" : "Scene.002"
        },
        {
            "name" : "Scene.003"
        }
    ],
    "nodes" : [
        {
            "mesh" : 0,
            "name" : "Obj_Lion",
            "translation" : [
                14.207863807678223,
                10.576606750488281,
                -76.53948974609375
            ]
        }
    ],
    "materials" : [
        {
            "doubleSided" : true,
            "name" : "material_0",
            "pbrMetallicRoughness" : {
                "baseColorFactor" : [
                    0.800000011920929,
                    0.800000011920929,
                    0.800000011920929,
                    1
                ],
                "metallicFactor" : 0,
                "roughnessFactor" : 0.5
            }
        }
    ],
    "meshes" : [
        {
            "name" : "Pillar_482.002",
            "primitives" : [
                {
                    "attributes" : {
                        "POSITION" : 0,
                        "NORMAL" : 1,
                        "TEXCOORD_0" : 2
                    },
                    "indices" : 3,
                    "material" : 0
                }
            ]
        }
    ],
    "accessors" : [
        {
            "bufferView" : 0,
            "componentType" : 5126,
            "count" : 22408,
            "max" : [
                3.5174551010131836,
                6.587512969970703,
                1.5714797973632812
            ],
            "min" : [
                -2.5969676971435547,
                0,
                -1.5900192260742188
            ],
            "type" : "VEC3"
        },
        {
            "bufferView" : 1,
            "componentType" : 5126,
            "count" : 22408,
            "type" : "VEC3"
        },
        {
            "bufferView" : 2,
            "componentType" : 5126,
            "count" : 22408,
            "type" : "VEC2"
        },
        {
            "bufferView" : 3,
            "componentType" : 5123,
            "count" : 85464,
            "type" : "SCALAR"
        }
    ],
    "bufferViews" : [
        {
            "buffer" : 0,
            "byteLength" : 268896,
            "byteOffset" : 0
        },
        {
            "buffer" : 0,
            "byteLength" : 268896,
            "byteOffset" : 268896
        },
        {
            "buffer" : 0,
            "byteLength" : 179264,
            "byteOffset" : 537792
        },
        {
            "buffer" : 0,
            "byteLength" : 170928,
            "byteOffset" : 717056
        }
    ],
    "buffers" : [
        {
            "byteLength" : 887984,
            "uri" : "data:application/octet-stream;base64,"
        }
    ]
}
